<svg width="366" height="30" viewBox="0 0 366 30" fill="none" xmlns="http://www.w3.org/2000/svg">
<path d="M13.92 0.479998L23.68 25.64C24.08 26.6533 24.5333 27.3333 25.04 27.68C25.5467 28 26.0133 28.1733 26.44 28.2V29C25.9067 28.9467 25.2533 28.92 24.48 28.92C23.7067 28.8933 22.9333 28.88 22.16 28.88C21.12 28.88 20.1467 28.8933 19.24 28.92C18.3333 28.92 17.6 28.9467 17.04 29V28.2C18.4 28.1467 19.2667 27.92 19.64 27.52C20.0133 27.0933 19.9333 26.2 19.4 24.84L11.96 4.96L12.6 4.44L5.64 22.52C5.21333 23.5867 4.96 24.4933 4.88 25.24C4.8 25.96 4.86667 26.5333 5.08 26.96C5.32 27.3867 5.70667 27.6933 6.24 27.88C6.8 28.0667 7.49333 28.1733 8.32 28.2V29C7.57333 28.9467 6.78667 28.92 5.96 28.92C5.16 28.8933 4.41333 28.88 3.72 28.88C3.05333 28.88 2.48 28.8933 2 28.92C1.54667 28.92 1.12 28.9467 0.72 29V28.2C1.25333 28.0667 1.8 27.76 2.36 27.28C2.92 26.7733 3.42667 25.92 3.88 24.72L13.28 0.479998C13.3867 0.479998 13.4933 0.479998 13.6 0.479998C13.7067 0.479998 13.8133 0.479998 13.92 0.479998ZM18.8 17.48V18.28H6.88L7.28 17.48H18.8ZM40.0141 0.68C44.7874 0.68 48.3341 1.88 50.6541 4.28C52.9741 6.65333 54.1341 10.0667 54.1341 14.52C54.1341 17.4267 53.5607 19.9733 52.4141 22.16C51.2941 24.32 49.6541 26 47.4941 27.2C45.3341 28.4 42.7207 29 39.6541 29C39.2541 29 38.7207 28.9867 38.0541 28.96C37.3874 28.9333 36.6941 28.92 35.9741 28.92C35.2807 28.8933 34.6407 28.88 34.0541 28.88C33.1207 28.88 32.2007 28.8933 31.2941 28.92C30.3874 28.92 29.6541 28.9467 29.0941 29V28.2C30.0007 28.1467 30.6807 28.04 31.1341 27.88C31.6141 27.72 31.9341 27.4 32.0941 26.92C32.2541 26.44 32.3341 25.72 32.3341 24.76V4.92C32.3341 3.93333 32.2541 3.21333 32.0941 2.76C31.9341 2.28 31.6141 1.96 31.1341 1.8C30.6807 1.61333 30.0007 1.50667 29.0941 1.48V0.68C29.6541 0.706666 30.3874 0.746666 31.2941 0.799998C32.2007 0.826665 33.0941 0.826665 33.9741 0.799998C34.9074 0.773332 35.9607 0.746666 37.1341 0.719999C38.3074 0.693333 39.2674 0.68 40.0141 0.68ZM39.0141 1.4C37.7874 1.4 36.9874 1.62666 36.6141 2.08C36.2407 2.53333 36.0541 3.45333 36.0541 4.84V24.84C36.0541 26.2267 36.2407 27.1467 36.6141 27.6C37.0141 28.0533 37.8274 28.28 39.0541 28.28C41.9607 28.28 44.2141 27.76 45.8141 26.72C47.4141 25.6533 48.5341 24.1067 49.1741 22.08C49.8141 20.0533 50.1341 17.5867 50.1341 14.68C50.1341 11.6933 49.7741 9.22667 49.0541 7.28C48.3607 5.30666 47.2007 3.84 45.5741 2.88C43.9741 1.89333 41.7874 1.4 39.0141 1.4ZM59.6488 0.68C60.2088 0.706666 60.9421 0.733332 61.8488 0.759999C62.7554 0.786665 63.6488 0.799998 64.5288 0.799998C65.7821 0.799998 66.9821 0.786665 68.1288 0.759999C69.2754 0.733332 70.0888 0.719999 70.5688 0.719999C72.7288 0.719999 74.5154 1.02667 75.9288 1.64C77.3688 2.25333 78.4354 3.09333 79.1288 4.16C79.8488 5.2 80.2088 6.37333 80.2088 7.68C80.2088 8.48 80.0488 9.33333 79.7288 10.24C79.4088 11.1467 78.8488 12 78.0488 12.8C77.2754 13.6 76.2088 14.2667 74.8488 14.8C73.4888 15.3067 71.7688 15.56 69.6888 15.56H65.8488V14.76H69.2888C71.1821 14.76 72.6221 14.4667 73.6088 13.88C74.6221 13.2667 75.3021 12.4667 75.6488 11.48C76.0221 10.4667 76.2088 9.34667 76.2088 8.12C76.2088 6.01333 75.7021 4.38667 74.6888 3.24C73.7021 2.06667 71.9954 1.48 69.5688 1.48C68.3421 1.48 67.5421 1.70667 67.1688 2.16C66.7954 2.61333 66.6088 3.53333 66.6088 4.92V24.76C66.6088 25.72 66.6888 26.44 66.8488 26.92C67.0088 27.4 67.3154 27.72 67.7688 27.88C68.2488 28.04 68.9421 28.1467 69.8488 28.2V29C69.2354 28.9467 68.4621 28.92 67.5288 28.92C66.6221 28.8933 65.7021 28.88 64.7688 28.88C63.7288 28.88 62.7554 28.8933 61.8488 28.92C60.9421 28.92 60.2088 28.9467 59.6488 29V28.2C60.5554 28.1467 61.2354 28.04 61.6888 27.88C62.1688 27.72 62.4888 27.4 62.6488 26.92C62.8088 26.44 62.8888 25.72 62.8888 24.76V4.92C62.8888 3.93333 62.8088 3.21333 62.6488 2.76C62.4888 2.28 62.1688 1.96 61.6888 1.8C61.2354 1.61333 60.5554 1.50667 59.6488 1.48V0.68ZM66.0088 14.88C67.4488 14.9333 68.5821 15 69.4088 15.08C70.2354 15.1333 70.9021 15.1867 71.4088 15.24C71.9421 15.2933 72.4488 15.36 72.9288 15.44C74.7154 15.7333 75.9954 16.28 76.7688 17.08C77.5688 17.8533 78.1554 19.0667 78.5287 20.72L79.5288 24.8C79.7954 25.9733 80.0621 26.8267 80.3288 27.36C80.6221 27.8667 81.0621 28.1067 81.6488 28.08C82.1021 28.0533 82.4754 27.9067 82.7688 27.64C83.0888 27.3733 83.4221 27.0133 83.7688 26.56L84.3688 27C83.8088 27.8267 83.2221 28.4667 82.6088 28.92C82.0221 29.3467 81.1821 29.56 80.0888 29.56C79.1021 29.56 78.2354 29.2667 77.4888 28.68C76.7421 28.0933 76.1821 26.9467 75.8088 25.24L74.9288 21.24C74.6888 20.0933 74.4088 19.1067 74.0888 18.28C73.7954 17.4267 73.3688 16.76 72.8088 16.28C72.2754 15.8 71.4754 15.56 70.4088 15.56H66.0888L66.0088 14.88ZM97.7863 0.68V1.48C96.8796 1.50667 96.1863 1.61333 95.7063 1.8C95.2529 1.96 94.9463 2.28 94.7863 2.76C94.6263 3.21333 94.5463 3.93333 94.5463 4.92V24.76C94.5463 25.72 94.6263 26.44 94.7863 26.92C94.9463 27.4 95.2529 27.72 95.7063 27.88C96.1863 28.04 96.8796 28.1467 97.7863 28.2V29C97.1729 28.9467 96.3996 28.92 95.4663 28.92C94.5596 28.8933 93.6396 28.88 92.7063 28.88C91.6663 28.88 90.6929 28.8933 89.7863 28.92C88.8796 28.92 88.1463 28.9467 87.5863 29V28.2C88.4929 28.1467 89.1729 28.04 89.6263 27.88C90.1063 27.72 90.4263 27.4 90.5863 26.92C90.7463 26.44 90.8263 25.72 90.8263 24.76V4.92C90.8263 3.93333 90.7463 3.21333 90.5863 2.76C90.4263 2.28 90.1063 1.96 89.6263 1.8C89.1729 1.61333 88.4929 1.50667 87.5863 1.48V0.68C88.1463 0.706666 88.8796 0.733332 89.7863 0.759999C90.6929 0.786665 91.6663 0.799998 92.7063 0.799998C93.6396 0.799998 94.5596 0.786665 95.4663 0.759999C96.3996 0.733332 97.1729 0.706666 97.7863 0.68ZM114.381 0.479998L124.141 25.64C124.541 26.6533 124.994 27.3333 125.501 27.68C126.008 28 126.474 28.1733 126.901 28.2V29C126.368 28.9467 125.714 28.92 124.941 28.92C124.168 28.8933 123.394 28.88 122.621 28.88C121.581 28.88 120.608 28.8933 119.701 28.92C118.794 28.92 118.061 28.9467 117.501 29V28.2C118.861 28.1467 119.728 27.92 120.101 27.52C120.474 27.0933 120.394 26.2 119.861 24.84L112.421 4.96L113.061 4.44L106.101 22.52C105.674 23.5867 105.421 24.4933 105.341 25.24C105.261 25.96 105.328 26.5333 105.541 26.96C105.781 27.3867 106.168 27.6933 106.701 27.88C107.261 28.0667 107.954 28.1733 108.781 28.2V29C108.034 28.9467 107.248 28.92 106.421 28.92C105.621 28.8933 104.874 28.88 104.181 28.88C103.514 28.88 102.941 28.8933 102.461 28.92C102.008 28.92 101.581 28.9467 101.181 29V28.2C101.714 28.0667 102.261 27.76 102.821 27.28C103.381 26.7733 103.888 25.92 104.341 24.72L113.741 0.479998C113.848 0.479998 113.954 0.479998 114.061 0.479998C114.168 0.479998 114.274 0.479998 114.381 0.479998ZM119.261 17.48V18.28H107.341L107.741 17.48H119.261ZM154.675 0.68V1.48C153.768 1.50667 153.075 1.64 152.595 1.88C152.142 2.12 151.835 2.50667 151.675 3.04C151.515 3.57333 151.435 4.33333 151.435 5.32V29.2C151.275 29.2 151.115 29.2 150.955 29.2C150.822 29.2 150.675 29.2 150.515 29.2L133.715 3.24V24.36C133.715 25.32 133.795 26.08 133.955 26.64C134.142 27.1733 134.488 27.56 134.995 27.8C135.528 28.0133 136.315 28.1467 137.355 28.2V29C136.875 28.9467 136.248 28.92 135.475 28.92C134.702 28.8933 133.968 28.88 133.275 28.88C132.608 28.88 131.928 28.8933 131.235 28.92C130.568 28.92 130.008 28.9467 129.555 29V28.2C130.462 28.1467 131.142 28.0133 131.595 27.8C132.075 27.56 132.395 27.1733 132.555 26.64C132.715 26.08 132.795 25.32 132.795 24.36V4.92C132.795 3.93333 132.715 3.21333 132.555 2.76C132.395 2.28 132.075 1.96 131.595 1.8C131.142 1.61333 130.462 1.50667 129.555 1.48V0.68C130.008 0.706666 130.568 0.733332 131.235 0.759999C131.928 0.786665 132.608 0.799998 133.275 0.799998C133.862 0.799998 134.422 0.786665 134.955 0.759999C135.488 0.733332 135.968 0.706666 136.395 0.68L150.515 22.44V5.32C150.515 4.33333 150.422 3.57333 150.235 3.04C150.075 2.50667 149.728 2.12 149.195 1.88C148.688 1.64 147.915 1.50667 146.875 1.48V0.68C147.355 0.706666 147.982 0.733332 148.755 0.759999C149.555 0.786665 150.288 0.799998 150.955 0.799998C151.648 0.799998 152.328 0.786665 152.995 0.759999C153.688 0.733332 154.248 0.706666 154.675 0.68ZM170.803 0.479998L180.563 25.64C180.963 26.6533 181.416 27.3333 181.923 27.68C182.429 28 182.896 28.1733 183.323 28.2V29C182.789 28.9467 182.136 28.92 181.363 28.92C180.589 28.8933 179.816 28.88 179.043 28.88C178.003 28.88 177.029 28.8933 176.123 28.92C175.216 28.92 174.483 28.9467 173.923 29V28.2C175.283 28.1467 176.149 27.92 176.523 27.52C176.896 27.0933 176.816 26.2 176.283 24.84L168.843 4.96L169.483 4.44L162.523 22.52C162.096 23.5867 161.843 24.4933 161.763 25.24C161.683 25.96 161.749 26.5333 161.963 26.96C162.203 27.3867 162.589 27.6933 163.123 27.88C163.683 28.0667 164.376 28.1733 165.203 28.2V29C164.456 28.9467 163.669 28.92 162.843 28.92C162.043 28.8933 161.296 28.88 160.603 28.88C159.936 28.88 159.363 28.8933 158.883 28.92C158.429 28.92 158.003 28.9467 157.603 29V28.2C158.136 28.0667 158.683 27.76 159.243 27.28C159.803 26.7733 160.309 25.92 160.763 24.72L170.163 0.479998C170.269 0.479998 170.376 0.479998 170.483 0.479998C170.589 0.479998 170.696 0.479998 170.803 0.479998ZM175.683 17.48V18.28H163.763L164.163 17.48H175.683ZM208.919 0.68V1.48C208.012 1.50667 207.319 1.61333 206.839 1.8C206.386 1.96 206.079 2.28 205.919 2.76C205.759 3.21333 205.679 3.93333 205.679 4.92V24.76C205.679 25.72 205.759 26.44 205.919 26.92C206.079 27.4 206.386 27.72 206.839 27.88C207.319 28.0133 208.012 28.08 208.919 28.08H211.839C213.092 28.08 214.106 27.9467 214.879 27.68C215.679 27.4133 216.306 27 216.759 26.44C217.239 25.8533 217.599 25.08 217.839 24.12C218.079 23.16 218.266 21.9867 218.399 20.6H219.319C219.239 21.4267 219.199 22.52 219.199 23.88C219.199 24.3867 219.212 25.12 219.239 26.08C219.292 27.0133 219.372 27.9867 219.479 29C218.119 28.9467 216.586 28.92 214.879 28.92C213.172 28.8933 211.652 28.88 210.319 28.88C209.732 28.88 208.972 28.88 208.039 28.88C207.132 28.88 206.146 28.8933 205.079 28.92C204.012 28.92 202.932 28.9333 201.839 28.96C200.746 28.96 199.706 28.9733 198.719 29V28.2C199.626 28.1467 200.306 28.04 200.759 27.88C201.239 27.72 201.559 27.4 201.719 26.92C201.879 26.44 201.959 25.72 201.959 24.76V4.92C201.959 3.93333 201.879 3.21333 201.719 2.76C201.559 2.28 201.239 1.96 200.759 1.8C200.306 1.61333 199.626 1.50667 198.719 1.48V0.68C199.279 0.706666 200.012 0.733332 200.919 0.759999C201.826 0.786665 202.799 0.799998 203.839 0.799998C204.772 0.799998 205.692 0.786665 206.599 0.759999C207.532 0.733332 208.306 0.706666 208.919 0.68ZM235.475 0.479998L245.235 25.64C245.635 26.6533 246.088 27.3333 246.595 27.68C247.101 28 247.568 28.1733 247.995 28.2V29C247.461 28.9467 246.808 28.92 246.035 28.92C245.261 28.8933 244.488 28.88 243.715 28.88C242.675 28.88 241.701 28.8933 240.795 28.92C239.888 28.92 239.155 28.9467 238.595 29V28.2C239.955 28.1467 240.821 27.92 241.195 27.52C241.568 27.0933 241.488 26.2 240.955 24.84L233.515 4.96L234.155 4.44L227.195 22.52C226.768 23.5867 226.515 24.4933 226.435 25.24C226.355 25.96 226.421 26.5333 226.635 26.96C226.875 27.3867 227.261 27.6933 227.795 27.88C228.355 28.0667 229.048 28.1733 229.875 28.2V29C229.128 28.9467 228.341 28.92 227.515 28.92C226.715 28.8933 225.968 28.88 225.275 28.88C224.608 28.88 224.035 28.8933 223.555 28.92C223.101 28.92 222.675 28.9467 222.275 29V28.2C222.808 28.0667 223.355 27.76 223.915 27.28C224.475 26.7733 224.981 25.92 225.435 24.72L234.835 0.479998C234.941 0.479998 235.048 0.479998 235.155 0.479998C235.261 0.479998 235.368 0.479998 235.475 0.479998ZM240.355 17.48V18.28H228.435L228.835 17.48H240.355ZM271.438 0.68C271.331 1.69333 271.251 2.68 271.198 3.64C271.171 4.57333 271.158 5.29333 271.158 5.8C271.158 6.44 271.171 7.04 271.198 7.6C271.224 8.16 271.251 8.65333 271.278 9.08H270.358C270.171 7.21333 269.918 5.74667 269.598 4.68C269.278 3.58666 268.718 2.8 267.918 2.32C267.118 1.84 265.878 1.6 264.198 1.6H262.038V24.36C262.038 25.4267 262.131 26.2267 262.318 26.76C262.531 27.2933 262.931 27.6533 263.518 27.84C264.104 28.0267 264.958 28.1467 266.078 28.2V29C265.384 28.9467 264.504 28.92 263.438 28.92C262.371 28.8933 261.291 28.88 260.198 28.88C258.998 28.88 257.864 28.8933 256.798 28.92C255.758 28.92 254.918 28.9467 254.278 29V28.2C255.398 28.1467 256.251 28.0267 256.838 27.84C257.424 27.6533 257.811 27.2933 257.998 26.76C258.211 26.2267 258.318 25.4267 258.318 24.36V1.6H256.158C254.504 1.6 253.264 1.84 252.438 2.32C251.638 2.8 251.078 3.58666 250.758 4.68C250.438 5.74667 250.184 7.21333 249.998 9.08H249.078C249.131 8.65333 249.158 8.16 249.158 7.6C249.184 7.04 249.198 6.44 249.198 5.8C249.198 5.29333 249.171 4.57333 249.118 3.64C249.091 2.68 249.024 1.69333 248.918 0.68C250.038 0.706666 251.251 0.733332 252.558 0.759999C253.891 0.786665 255.224 0.799998 256.558 0.799998C257.891 0.799998 259.104 0.799998 260.198 0.799998C261.291 0.799998 262.491 0.799998 263.798 0.799998C265.131 0.799998 266.464 0.786665 267.798 0.759999C269.131 0.733332 270.344 0.706666 271.438 0.68ZM298.282 0.68C298.175 1.69333 298.095 2.68 298.042 3.64C298.015 4.57333 298.002 5.29333 298.002 5.8C298.002 6.44 298.015 7.04 298.042 7.6C298.068 8.16 298.095 8.65333 298.122 9.08H297.202C297.015 7.21333 296.762 5.74667 296.442 4.68C296.122 3.58666 295.562 2.8 294.762 2.32C293.962 1.84 292.722 1.6 291.042 1.6H288.882V24.36C288.882 25.4267 288.975 26.2267 289.162 26.76C289.375 27.2933 289.775 27.6533 290.362 27.84C290.948 28.0267 291.802 28.1467 292.922 28.2V29C292.228 28.9467 291.348 28.92 290.282 28.92C289.215 28.8933 288.135 28.88 287.042 28.88C285.842 28.88 284.708 28.8933 283.642 28.92C282.602 28.92 281.762 28.9467 281.122 29V28.2C282.242 28.1467 283.095 28.0267 283.682 27.84C284.268 27.6533 284.655 27.2933 284.842 26.76C285.055 26.2267 285.162 25.4267 285.162 24.36V1.6H283.002C281.348 1.6 280.108 1.84 279.282 2.32C278.482 2.8 277.922 3.58666 277.602 4.68C277.282 5.74667 277.028 7.21333 276.842 9.08H275.922C275.975 8.65333 276.002 8.16 276.002 7.6C276.028 7.04 276.042 6.44 276.042 5.8C276.042 5.29333 276.015 4.57333 275.962 3.64C275.935 2.68 275.868 1.69333 275.762 0.68C276.882 0.706666 278.095 0.733332 279.402 0.759999C280.735 0.786665 282.068 0.799998 283.402 0.799998C284.735 0.799998 285.948 0.799998 287.042 0.799998C288.135 0.799998 289.335 0.799998 290.642 0.799998C291.975 0.799998 293.308 0.786665 294.642 0.759999C295.975 0.733332 297.188 0.706666 298.282 0.68ZM312.49 0.479998L322.25 25.64C322.65 26.6533 323.104 27.3333 323.61 27.68C324.117 28 324.584 28.1733 325.01 28.2V29C324.477 28.9467 323.824 28.92 323.05 28.92C322.277 28.8933 321.504 28.88 320.73 28.88C319.69 28.88 318.717 28.8933 317.81 28.92C316.904 28.92 316.17 28.9467 315.61 29V28.2C316.97 28.1467 317.837 27.92 318.21 27.52C318.584 27.0933 318.504 26.2 317.97 24.84L310.53 4.96L311.17 4.44L304.21 22.52C303.784 23.5867 303.53 24.4933 303.45 25.24C303.37 25.96 303.437 26.5333 303.65 26.96C303.89 27.3867 304.277 27.6933 304.81 27.88C305.37 28.0667 306.064 28.1733 306.89 28.2V29C306.144 28.9467 305.357 28.92 304.53 28.92C303.73 28.8933 302.984 28.88 302.29 28.88C301.624 28.88 301.05 28.8933 300.57 28.92C300.117 28.92 299.69 28.9467 299.29 29V28.2C299.824 28.0667 300.37 27.76 300.93 27.28C301.49 26.7733 301.997 25.92 302.45 24.72L311.85 0.479998C311.957 0.479998 312.064 0.479998 312.17 0.479998C312.277 0.479998 312.384 0.479998 312.49 0.479998ZM317.37 17.48V18.28H305.45L305.85 17.48H317.37ZM327.664 0.68C328.224 0.706666 328.958 0.733332 329.864 0.759999C330.771 0.786665 331.664 0.799998 332.544 0.799998C333.798 0.799998 334.998 0.786665 336.144 0.759999C337.291 0.733332 338.104 0.719999 338.584 0.719999C340.744 0.719999 342.531 1.02667 343.944 1.64C345.384 2.25333 346.451 3.09333 347.144 4.16C347.864 5.2 348.224 6.37333 348.224 7.68C348.224 8.48 348.064 9.33333 347.744 10.24C347.424 11.1467 346.864 12 346.064 12.8C345.291 13.6 344.224 14.2667 342.864 14.8C341.504 15.3067 339.784 15.56 337.704 15.56H333.864V14.76H337.304C339.198 14.76 340.638 14.4667 341.624 13.88C342.638 13.2667 343.318 12.4667 343.664 11.48C344.038 10.4667 344.224 9.34667 344.224 8.12C344.224 6.01333 343.718 4.38667 342.704 3.24C341.718 2.06667 340.011 1.48 337.584 1.48C336.358 1.48 335.558 1.70667 335.184 2.16C334.811 2.61333 334.624 3.53333 334.624 4.92V24.76C334.624 25.72 334.704 26.44 334.864 26.92C335.024 27.4 335.331 27.72 335.784 27.88C336.264 28.04 336.958 28.1467 337.864 28.2V29C337.251 28.9467 336.478 28.92 335.544 28.92C334.638 28.8933 333.718 28.88 332.784 28.88C331.744 28.88 330.771 28.8933 329.864 28.92C328.958 28.92 328.224 28.9467 327.664 29V28.2C328.571 28.1467 329.251 28.04 329.704 27.88C330.184 27.72 330.504 27.4 330.664 26.92C330.824 26.44 330.904 25.72 330.904 24.76V4.92C330.904 3.93333 330.824 3.21333 330.664 2.76C330.504 2.28 330.184 1.96 329.704 1.8C329.251 1.61333 328.571 1.50667 327.664 1.48V0.68ZM334.024 14.88C335.464 14.9333 336.598 15 337.424 15.08C338.251 15.1333 338.918 15.1867 339.424 15.24C339.958 15.2933 340.464 15.36 340.944 15.44C342.731 15.7333 344.011 16.28 344.784 17.08C345.584 17.8533 346.171 19.0667 346.544 20.72L347.544 24.8C347.811 25.9733 348.078 26.8267 348.344 27.36C348.638 27.8667 349.078 28.1067 349.664 28.08C350.118 28.0533 350.491 27.9067 350.784 27.64C351.104 27.3733 351.438 27.0133 351.784 26.56L352.384 27C351.824 27.8267 351.238 28.4667 350.624 28.92C350.038 29.3467 349.198 29.56 348.104 29.56C347.118 29.56 346.251 29.2667 345.504 28.68C344.758 28.0933 344.198 26.9467 343.824 25.24L342.944 21.24C342.704 20.0933 342.424 19.1067 342.104 18.28C341.811 17.4267 341.384 16.76 340.824 16.28C340.291 15.8 339.491 15.56 338.424 15.56H334.104L334.024 14.88ZM365.802 0.68V1.48C364.895 1.50667 364.202 1.61333 363.722 1.8C363.269 1.96 362.962 2.28 362.802 2.76C362.642 3.21333 362.562 3.93333 362.562 4.92V24.76C362.562 25.72 362.642 26.44 362.802 26.92C362.962 27.4 363.269 27.72 363.722 27.88C364.202 28.04 364.895 28.1467 365.802 28.2V29C365.189 28.9467 364.415 28.92 363.482 28.92C362.575 28.8933 361.655 28.88 360.722 28.88C359.682 28.88 358.709 28.8933 357.802 28.92C356.895 28.92 356.162 28.9467 355.602 29V28.2C356.509 28.1467 357.189 28.04 357.642 27.88C358.122 27.72 358.442 27.4 358.602 26.92C358.762 26.44 358.842 25.72 358.842 24.76V4.92C358.842 3.93333 358.762 3.21333 358.602 2.76C358.442 2.28 358.122 1.96 357.642 1.8C357.189 1.61333 356.509 1.50667 355.602 1.48V0.68C356.162 0.706666 356.895 0.733332 357.802 0.759999C358.709 0.786665 359.682 0.799998 360.722 0.799998C361.655 0.799998 362.575 0.786665 363.482 0.759999C364.415 0.733332 365.189 0.706666 365.802 0.68Z" fill="black"/>
</svg>
